# xmcd CD database file generated by OrangeCD 6.4
#
# Track frame offsets:
#	150
#	33000
#	48809
#	63682
#	93381
#	114527
#	132286
#	143388
#	158682
#	170740
#
# Disc length: 2373 seconds
#
# Revision: 0
# Processed by: cddbd v1.5.2PL0 Copyright (c) Steve Scherf et al.
# Submitted via: OrangeCD 6.4
#
DISCID=7c09430a
DTITLE=Jessi Colter - I'm Jessi Colter/Jessi/Diamond In The Rough
DYEAR=2011
DGENRE=Progressive Country
TTITLE0=Diamond In The Rough
TTITLE1=Get Back
TTITLE2=Would You Leave Me Now
TTITLE3=Hey Jude
TTITLE4=Oh Will (Who Made It Rain Last Night)
TTITLE5=I Thought I Heard You Calling My Name
TTITLE6=Ain't No Way
TTITLE7=You Hung The Moon (Didn't You Waylon?)
TTITLE8=A Woman's Heart (Is A Handy Place To Be)
TTITLE9=Oh Will <Reprise>.
EXTD=
EXTT0=
EXTT1=
EXTT2=
EXTT3=
EXTT4=
EXTT5=
EXTT6=
EXTT7=
EXTT8=
EXTT9=
PLAYORDER=
